<svg width="26" height="26" viewBox="0 0 26 26" fill="none" xmlns="http://www.w3.org/2000/svg">
<g clip-path="url(#clip0_779_5345)">
<path d="M12.9969 8.83156C10.7016 8.83156 8.82843 10.7047 8.82843 13C8.82843 15.2953 10.7016 17.1684 12.9969 17.1684C15.2922 17.1684 17.1653 15.2953 17.1653 13C17.1653 10.7047 15.2922 8.83156 12.9969 8.83156ZM25.4991 13C25.4991 11.2738 25.5147 9.5633 25.4178 7.84026C25.3208 5.83891 24.8643 4.06271 23.4008 2.59922C21.9342 1.13261 20.1611 0.679176 18.1597 0.582235C16.4336 0.485295 14.723 0.50093 13 0.50093C11.2738 0.50093 9.5633 0.485295 7.84026 0.582235C5.83891 0.679176 4.06271 1.13573 2.59922 2.59922C1.13261 4.06584 0.679176 5.83891 0.582235 7.84026C0.485295 9.56643 0.50093 11.277 0.50093 13C0.50093 14.723 0.485295 16.4367 0.582235 18.1597C0.679176 20.1611 1.13573 21.9373 2.59922 23.4008C4.06584 24.8674 5.83891 25.3208 7.84026 25.4178C9.56643 25.5147 11.277 25.4991 13 25.4991C14.7262 25.4991 16.4367 25.5147 18.1597 25.4178C20.1611 25.3208 21.9373 24.8643 23.4008 23.4008C24.8674 21.9342 25.3208 20.1611 25.4178 18.1597C25.5178 16.4367 25.4991 14.7262 25.4991 13ZM12.9969 19.4137C9.4476 19.4137 6.58316 16.5493 6.58316 13C6.58316 9.45073 9.4476 6.58629 12.9969 6.58629C16.5461 6.58629 19.4106 9.45073 19.4106 13C19.4106 16.5493 16.5461 19.4137 12.9969 19.4137ZM19.6733 7.8215C18.8446 7.8215 18.1754 7.1523 18.1754 6.32361C18.1754 5.49493 18.8446 4.82573 19.6733 4.82573C20.5019 4.82573 21.1711 5.49493 21.1711 6.32361C21.1714 6.52039 21.1328 6.71528 21.0576 6.89712C20.9824 7.07897 20.8721 7.24419 20.733 7.38333C20.5938 7.52247 20.4286 7.6328 20.2468 7.70798C20.0649 7.78317 19.87 7.82175 19.6733 7.8215Z" fill="#28A745"/>
</g>
<defs>
<clipPath id="clip0_779_5345">
<rect width="25" height="25" fill="white" transform="translate(0.5 0.5)"/>
</clipPath>
</defs>
</svg>
