<svg width="32" height="26" viewBox="0 0 32 26" fill="none" xmlns="http://www.w3.org/2000/svg">
<g clip-path="url(#clip0_779_5343)">
<path d="M10.2379 25.5C21.9365 25.5 28.3361 15.8794 28.3361 7.55096C28.3361 7.28174 28.3361 7.00868 28.3244 6.73946C29.5704 5.84429 30.6457 4.73601 31.5 3.46656C30.3362 3.97586 29.1028 4.31153 27.8401 4.46266C29.1702 3.67354 30.1665 2.43194 30.6436 0.968616C29.3939 1.70343 28.0261 2.21927 26.6001 2.49353C25.6414 1.48017 24.3727 0.808851 22.9907 0.583554C21.6086 0.358258 20.1903 0.591562 18.9553 1.24733C17.7204 1.90309 16.7378 2.94472 16.1597 4.21087C15.5817 5.47701 15.4404 6.89702 15.7578 8.25092C13.2289 8.12506 10.7548 7.47301 8.49615 6.33707C6.23746 5.20112 4.24458 3.60664 2.64675 1.65704C1.8356 3.04751 1.58805 4.69226 1.95438 6.25731C2.3207 7.82235 3.27344 9.19035 4.61912 10.0835C3.61073 10.0495 2.62451 9.78076 1.74 9.29894V9.38547C1.74174 10.8421 2.25016 12.2534 3.17932 13.381C4.10848 14.5085 5.40139 15.283 6.8395 15.5736C6.29363 15.7229 5.72976 15.7973 5.16356 15.7947C4.76441 15.7959 4.36605 15.7592 3.97394 15.6851C4.3804 16.939 5.17184 18.0353 6.23742 18.8205C7.30299 19.6057 8.58932 20.0404 9.91625 20.0638C7.66208 21.821 4.87759 22.774 2.01125 22.7694C1.50618 22.7715 1.00147 22.7426 0.5 22.6828C3.40918 24.5236 6.78776 25.5011 10.2379 25.5Z" fill="#28A745"/>
</g>
<defs>
<clipPath id="clip0_779_5343">
<rect width="31" height="25" fill="white" transform="translate(0.5 0.5)"/>
</clipPath>
</defs>
</svg>
