<svg width="71" height="70" viewBox="0 0 71 70" fill="none" xmlns="http://www.w3.org/2000/svg">
<g opacity="0.15" clip-path="url(#clip0_780_5627)">
<path d="M17.3211 32.7571C14.7972 32.7657 12.3179 33.4294 10.1218 34.6843C13.2136 26.6125 18.3415 19.4949 24.9981 14.0359C25.379 13.7195 25.6943 13.3306 25.9262 12.8914C26.158 12.4521 26.3018 11.971 26.3493 11.4757C26.3969 10.9804 26.3472 10.4805 26.2032 10.0045C26.0591 9.52856 25.8236 9.08587 25.5099 8.70173C25.1963 8.31759 24.8107 7.99951 24.3752 7.76567C23.9396 7.53184 23.4627 7.38681 22.9716 7.33888C22.4805 7.29094 21.9849 7.34104 21.513 7.48631C21.0411 7.63157 20.6022 7.86916 20.2213 8.18551C6.57335 19.3701 0.5 34.8564 0.5 44.4579C0.523516 47.8528 1.52657 51.1674 3.38668 53.9969C5.2468 56.8264 7.88349 59.0484 10.9748 60.3916C12.9755 61.3691 15.1664 61.8863 17.3894 61.9058C19.346 62.0018 21.3016 61.6959 23.1375 61.0067C24.9735 60.3176 26.6515 59.2596 28.0699 57.8968C29.4884 56.534 30.6176 54.8948 31.3892 53.0787C32.1608 51.2626 32.5586 49.3073 32.5586 47.3315C32.5586 45.3556 32.1608 43.4004 31.3892 41.5843C30.6176 39.7681 29.4884 38.129 28.0699 36.7662C26.6515 35.4034 24.9735 34.3454 23.1375 33.6562C21.3016 32.9671 19.346 32.6612 17.3894 32.7571H17.3211Z" fill="#979797"/>
<path d="M55.3308 32.7571C52.8064 32.7626 50.3263 33.4265 48.1315 34.6843C51.222 26.621 56.3365 19.5058 62.9736 14.0359C63.3891 13.7339 63.7388 13.3493 64.0014 12.9058C64.2639 12.4624 64.4337 11.9694 64.5003 11.4573C64.5669 10.9452 64.5289 10.4247 64.3886 9.92794C64.2483 9.43118 64.0087 8.96864 63.6846 8.56878C63.3604 8.16891 62.9586 7.84018 62.5037 7.60282C62.0489 7.36547 61.5507 7.2245 61.0399 7.1886C60.529 7.1527 60.0163 7.22262 59.5332 7.39407C59.0501 7.56551 58.607 7.83486 58.231 8.18552C44.583 19.3701 38.5096 34.8564 38.5096 44.4579C38.5258 47.8144 39.4996 51.0952 41.3147 53.9085C43.1298 56.7217 45.7095 58.9485 48.7456 60.3228C50.7969 61.3289 53.0498 61.847 55.3308 61.837C57.2874 61.9329 59.243 61.6271 61.0789 60.9379C62.9149 60.2488 64.5929 59.1907 66.0113 57.8279C67.4298 56.4651 68.559 54.826 69.3306 53.0099C70.1021 51.1938 70.5 49.2385 70.5 47.2627C70.5 45.2868 70.1021 43.3316 69.3306 41.5154C68.559 39.6993 67.4298 38.0602 66.0113 36.6974C64.5929 35.3346 62.9149 34.2765 61.0789 33.5874C59.243 32.8983 57.2874 32.5924 55.3308 32.6883V32.7571Z" fill="#979797"/>
</g>
<defs>
<clipPath id="clip0_780_5627">
<rect width="70" height="70" fill="white" transform="translate(0.5)"/>
</clipPath>
</defs>
</svg>
