<svg width="22" height="22" viewBox="0 0 22 22" fill="none" xmlns="http://www.w3.org/2000/svg">
<g clip-path="url(#clip0_958_668)">
<path d="M7.13281 14.2229H18.7775C19.0659 14.2229 19.3188 14.0322 19.3969 13.7552L21.9752 4.73163C22.0305 4.53709 21.9926 4.32812 21.8706 4.16649C21.7484 4.00535 21.5584 3.91018 21.3556 3.91018H5.64485L5.18411 1.83694C5.11865 1.5417 4.85681 1.33206 4.55469 1.33206H0.644531C0.288361 1.33206 0 1.62042 0 1.97659C0 2.33293 0.288361 2.62112 0.644531 2.62112H4.03738L6.36491 13.0948C5.6801 13.3925 5.19922 14.0741 5.19922 14.8674C5.19922 15.9335 6.06665 16.801 7.13281 16.801H18.7775C19.1339 16.801 19.422 16.5128 19.422 16.1564C19.422 15.8003 19.1339 15.5119 18.7775 15.5119H7.13281C6.77782 15.5119 6.48828 15.2231 6.48828 14.8674C6.48828 14.5117 6.77782 14.2229 7.13281 14.2229Z" fill="white"/>
<path d="M6.48828 18.7346C6.48828 19.8009 7.35571 20.6682 8.42204 20.6682C9.48821 20.6682 10.3556 19.8009 10.3556 18.7346C10.3556 17.6684 9.48821 16.801 8.42204 16.801C7.35571 16.801 6.48828 17.6684 6.48828 18.7346Z" fill="white"/>
<path d="M15.5547 18.7346C15.5547 19.8009 16.4221 20.6682 17.4883 20.6682C18.5546 20.6682 19.4219 19.8009 19.4219 18.7346C19.4219 17.6684 18.5546 16.801 17.4883 16.801C16.4221 16.801 15.5547 17.6684 15.5547 18.7346Z" fill="white"/>
</g>
<defs>
<clipPath id="clip0_958_668">
<rect width="22" height="22" fill="white"/>
</clipPath>
</defs>
</svg>
