<svg width="25" height="25" viewBox="0 0 25 25" fill="none" xmlns="http://www.w3.org/2000/svg">
<path d="M16.0506 17.8959C15.9519 17.7769 15.805 17.7083 15.6503 17.7083H9.34945C9.19482 17.7083 9.04784 17.7769 8.94916 17.8959C8.84999 18.015 8.80927 18.1716 8.83725 18.3237C9.58598 22.3795 11.0239 25 12.4999 25C13.9759 25 15.4138 22.3795 16.1625 18.3237C16.1905 18.1716 16.1498 18.015 16.0506 17.8959Z" fill="white"/>
<path d="M24.4057 8.69544C24.337 8.47977 24.1367 8.33328 23.9098 8.33328H18.0448C17.8978 8.33328 17.7575 8.39534 17.6588 8.50467C17.5596 8.61404 17.5118 8.75999 17.5266 8.90647C17.6471 10.1028 17.7081 11.3123 17.7081 12.4999C17.7081 13.6876 17.6471 14.8971 17.5266 16.0934C17.5118 16.2399 17.5596 16.3858 17.6588 16.4952C17.7575 16.6045 17.8978 16.6666 18.0448 16.6666H23.9098C24.1367 16.6666 24.3371 16.5201 24.4057 16.3044C24.7999 15.07 24.9998 13.7903 24.9998 12.5C24.9998 11.2096 24.7999 9.92991 24.4057 8.69544Z" fill="white"/>
<path d="M17.2506 6.85729C17.2928 7.10802 17.51 7.29167 17.7643 7.29167H23.0215C23.2051 7.29167 23.3755 7.1945 23.4696 7.03683C23.5632 6.87863 23.5667 6.68283 23.4788 6.5216C21.9152 3.65646 19.2291 1.47399 16.1082 0.534048C15.9073 0.471987 15.686 0.540639 15.5523 0.705972C15.4195 0.871792 15.4002 1.10119 15.5034 1.28629C16.2623 2.64635 16.8665 4.57252 17.2506 6.85729Z" fill="white"/>
<path d="M15.9532 8.33337H9.04707C8.78105 8.33337 8.55776 8.53377 8.5293 8.79827C8.39961 10.0007 8.3335 11.2463 8.3335 12.5001C8.3335 13.7539 8.39961 14.9995 8.5293 16.2019C8.55776 16.4664 8.78105 16.6668 9.04707 16.6668H15.9532C16.2192 16.6668 16.4425 16.4664 16.471 16.2019C16.6007 14.9995 16.6668 13.7539 16.6668 12.5001C16.6668 11.2463 16.6007 10.0007 16.471 8.79827C16.4425 8.53377 16.2192 8.33337 15.9532 8.33337Z" fill="white"/>
<path d="M1.97839 7.29166H7.23556C7.48986 7.29166 7.70705 7.10807 7.74928 6.85729C8.13332 4.57252 8.73757 2.64635 9.4964 1.28629C9.59968 1.10114 9.58034 0.871741 9.44758 0.70597C9.31432 0.541175 9.09406 0.471497 8.89167 0.534046C5.77072 1.47404 3.08464 3.65651 1.52111 6.52164C1.43312 6.68287 1.43669 6.87872 1.53029 7.03688C1.62438 7.19454 1.79474 7.29166 1.97839 7.29166Z" fill="white"/>
<path d="M7.34102 16.4953C7.44019 16.3859 7.48799 16.24 7.47324 16.0935C7.35269 14.8972 7.29165 13.6877 7.29165 12.5C7.29165 11.3124 7.35269 10.1029 7.47324 8.90657C7.48799 8.76008 7.44019 8.61409 7.34102 8.50476C7.24233 8.39539 7.10195 8.33337 6.95498 8.33337H1.08999C0.863135 8.33337 0.662744 8.47986 0.594092 8.69553C0.199902 9.92996 0 11.2097 0 12.5C0 13.7904 0.199902 15.0701 0.594092 16.3046C0.662744 16.5203 0.863135 16.6667 1.08999 16.6667H6.95498C7.10195 16.6667 7.24233 16.6047 7.34102 16.4953Z" fill="white"/>
<path d="M7.74924 18.1427C7.707 17.892 7.48981 17.7084 7.23551 17.7084H1.97839C1.79479 17.7084 1.62438 17.8055 1.53029 17.9632C1.43669 18.1214 1.43312 18.3172 1.52111 18.4784C3.08464 21.3435 5.77067 23.526 8.89162 24.466C8.94094 24.4813 8.99133 24.4883 9.04167 24.4883C9.19679 24.4883 9.34684 24.4187 9.44758 24.2941C9.58034 24.1282 9.59968 23.8988 9.4964 23.7137C8.73752 22.3536 8.13327 20.4274 7.74924 18.1427Z" fill="white"/>
<path d="M23.0214 17.7084H17.7643C17.51 17.7084 17.2928 17.892 17.2506 18.1427C16.8665 20.4275 16.2623 22.3537 15.5034 23.7137C15.4002 23.8989 15.4195 24.1283 15.5523 24.2941C15.653 24.4187 15.803 24.4883 15.9582 24.4883C16.008 24.4883 16.0589 24.4812 16.1082 24.466C19.2292 23.526 21.9152 21.3435 23.4788 18.4784C23.5667 18.3172 23.5632 18.1213 23.4696 17.9632C23.3754 17.8055 23.2051 17.7084 23.0214 17.7084Z" fill="white"/>
<path d="M8.94912 7.104C9.0478 7.22305 9.19477 7.2917 9.34941 7.2917H15.6503C15.8049 7.2917 15.9519 7.22305 16.0506 7.104C16.1498 6.98496 16.1905 6.82832 16.1625 6.67627C15.4138 2.62046 13.9759 0 12.4999 0C11.0238 0 9.58593 2.62046 8.83725 6.67622C8.80927 6.82832 8.84995 6.98496 8.94912 7.104Z" fill="white"/>
</svg>
